# xmcd
#
# Track frame offsets:
#	150
#	13577
#	27207
#	42100
#	51137
#	64627
#	76502
#	86147
#	102050
#	113392
#	128880
#	140782
#
# Disc length: 2072 seconds
#
# Revision: 1
# Processed by: cddbd v1.4PL0 Copyright (c) Steve Scherf et al.
# Submitted via: EasyCDDAExtractor 6.0.0.1
#
DISCID=8c08160c
DTITLE=Skip Heller - Fallen Hand of Love
DYEAR=1992
DGENRE=Country
TTITLE0=Our Town
TTITLE1=Let's Be Adult
TTITLE2=Halloween Party
TTITLE3=Shelly Shelly
TTITLE4=Friday Night
TTITLE5=Nadine Nadine
TTITLE6=Black The Floor
TTITLE7=Lonely For You
TTITLE8=Does She or Doesn't She
TTITLE9=Two Years To The Day
TTITLE10=What Goes On
TTITLE11=Star Up There With Our Name
EXTD=
EXTT0=
EXTT1=
EXTT2=
EXTT3=
EXTT4=
EXTT5=
EXTT6=
EXTT7=
EXTT8=
EXTT9=
EXTT10=
EXTT11=
PLAYORDER=
